<?xml version="1.0" encoding="utf-8"?>
<!-- Generator: Adobe Illustrator 23.1.0, SVG Export Plug-In . SVG Version: 6.00 Build 0)  -->
<svg version="1.1" id="Layer_1" xmlns="http://www.w3.org/2000/svg" xmlns:xlink="http://www.w3.org/1999/xlink" x="0px" y="0px"
	 viewBox="0 0 64 64" style="enable-background:new 0 0 64 64;" xml:space="preserve">
<style type="text/css">
	.st0{fill:#FFFFFF;}
	.st1{fill:#E4003A;}
</style>
<g id="_x35_6WZcb.tif">
	<g>
		<path class="st0" d="M50.5,58.6c-12.5,0-25,0-37.4,0c0,1.8,0,3.6,0,5.4c12.5,0,24.9,0,37.4,0C50.5,62.2,50.5,60.4,50.5,58.6z
			 M46.8,10.5c-1.4,1.8-3.2,2.9-5.5,3.2c0.1,0.2,0.2,0.3,0.2,0.5c0.7,1.2,1.3,2.3,2,3.5c0.1,0.2,0.1,0.4,0.1,0.6
			c-0.9,2.2-0.6,4.2,0.7,6.1c0.1,0.2,0.2,0.4,0.1,0.6c-0.2,0.8-0.4,1.6-0.6,2.4c-0.3,1.2-0.7,2.5-1,3.8c4,1.1,8,2.1,12,3.2
			c-0.4-1-1-1.7-2-2.1c-1.8-0.7-3.6-1.5-5.4-2.3c0.5-1.1,1-2.1,1.4-3.2c0-0.1,0.2-0.2,0.4-0.2c1.9-0.2,3.5-1,4.6-2.6
			c0.1-0.1,0.2-0.3,0.4-0.3c1.2,0.1,2.3,0.2,3.5,0.4c0,0.1,0,0.2,0,0.2c-0.2,1.8-0.4,3.6-0.7,5.4c-0.2,1.1,0,2.1,0.8,3
			c1.1-4,2.1-8,3.2-12c-2.1-0.5-4-1.1-6-1.6c-0.3-0.1-0.6-0.2-0.7-0.5c-0.9-2.1-2.4-3.3-4.7-3.6c-0.2,0-0.5-0.3-0.7-0.5
			C48.3,13.1,47.6,11.8,46.8,10.5z M41,44.2c0.1-4.7-3.8-9.2-9.1-9.2c-5.1,0-9.2,4.1-9.3,9.2c0,5,4.1,9.2,9.2,9.2
			C36.8,53.3,41,49.2,41,44.2z M33.1,6.2c-5.9,3-11.7,5.9-17.6,8.9c3.1,1.9,4.7,4.7,4.8,8.4c5.5-3.6,11-7.2,16.5-10.8
			C34.5,11.1,33.3,9,33.1,6.2z M12.5,32.5c2.9,3.5,5.8,7,8.7,10.4c1-5.3,4.1-8.4,9.4-9.4c-3.5-2.9-6.9-5.8-10.4-8.7
			C19.2,29,16.7,31.5,12.5,32.5z M18.9,23.3c0-4.1-3.3-7.9-8-7.9c-4.6,0-8,3.8-8,7.9c0,4.4,3.6,8,8,8C15.3,31.2,18.9,27.6,18.9,23.3
			z M44.6,57.3c-1.3-2.6-2.5-5.1-3.7-7.6c-2.2,3.2-5.2,5-9.1,5c-3.9,0-6.9-1.8-9.1-5c-1.2,2.6-2.5,5.1-3.7,7.6
			C27.6,57.3,36,57.3,44.6,57.3z M46.8,6.2c0-3.4-2.7-6.2-6.1-6.2c-3.1,0-6.2,2.4-6.2,6.2c0,3.6,2.9,6.1,6.1,6.1
			C44,12.3,46.8,9.5,46.8,6.2z"/>
		<path d="M50.5,58.6c0,1.8,0,3.6,0,5.4c-12.5,0-24.9,0-37.4,0c0-1.8,0-3.6,0-5.4C25.6,58.6,38,58.6,50.5,58.6z"/>
		<path d="M46.8,10.5c0.8,1.3,1.5,2.6,2.2,3.8c0.1,0.2,0.4,0.4,0.7,0.5c2.2,0.3,3.8,1.6,4.7,3.6c0.2,0.4,0.4,0.4,0.7,0.5
			c2,0.5,3.9,1,6,1.6c-1.1,4-2.1,8-3.2,12c-0.8-0.9-1-1.8-0.8-3c0.3-1.8,0.4-3.6,0.7-5.4c0-0.1,0-0.1,0-0.2
			c-1.2-0.1-2.3-0.3-3.5-0.4c-0.1,0-0.3,0.2-0.4,0.3c-1.1,1.6-2.7,2.5-4.6,2.6c-0.1,0-0.3,0.1-0.4,0.2c-0.5,1-1,2.1-1.4,3.2
			c1.8,0.8,3.6,1.6,5.4,2.3c1,0.4,1.6,1.1,2,2.1c-4-1.1-8-2.1-12-3.2c0.3-1.3,0.7-2.5,1-3.8c0.2-0.8,0.5-1.6,0.6-2.4
			c0-0.2,0-0.4-0.1-0.6c-1.4-1.9-1.7-3.9-0.7-6.1c0.1-0.2,0-0.4-0.1-0.6c-0.6-1.2-1.3-2.3-2-3.5c-0.1-0.1-0.1-0.3-0.2-0.5
			C43.7,13.4,45.5,12.3,46.8,10.5z M45.4,20.6c0,2,1.6,3.6,3.6,3.6c2,0,3.6-1.7,3.6-3.6c0-2-1.6-3.6-3.6-3.6
			C47,17,45.4,18.6,45.4,20.6z"/>
		<path d="M41,44.2c0,5.1-4.1,9.1-9.2,9.1c-5,0-9.2-4.2-9.2-9.2c0-5,4.2-9.2,9.3-9.2C37.2,35,41.1,39.5,41,44.2z M31.7,49.6
			c3,0.1,5.5-2.4,5.5-5.4c0.1-2.9-2.4-5.5-5.4-5.5c-3,0-5.5,2.4-5.6,5.3C26.3,47,28.7,49.5,31.7,49.6z"/>
		<path d="M33.1,6.2c0.2,2.8,1.4,5,3.8,6.5c-5.5,3.6-11,7.2-16.5,10.8c-0.1-3.7-1.7-6.4-4.8-8.4C21.3,12.1,27.2,9.2,33.1,6.2z"/>
		<path d="M12.5,32.5c4.2-1,6.7-3.5,7.7-7.7c3.5,2.9,7,5.8,10.4,8.7c-5.3,1-8.4,4.1-9.4,9.4C18.3,39.5,15.4,36,12.5,32.5z"/>
		<path d="M18.9,23.3c0,4.3-3.6,8-7.9,8c-4.4,0-8-3.6-8-8c0-4.1,3.3-7.9,8-7.9C15.7,15.3,18.9,19.1,18.9,23.3z M6.1,23.3
			c0,2.7,2.2,4.9,4.8,4.9c2.6,0,4.9-2.2,4.9-4.9c0-2.7-2.2-4.9-4.9-4.9C8.3,18.4,6.1,20.6,6.1,23.3z"/>
		<path d="M44.6,57.3c-8.5,0-17,0-25.5,0c1.2-2.6,2.5-5.1,3.7-7.6c2.2,3.2,5.2,5,9.1,5c3.9,0,6.8-1.8,9.1-5
			C42.1,52.2,43.3,54.7,44.6,57.3z"/>
		<path d="M46.8,6.2c0,3.4-2.8,6.2-6.2,6.1c-3.2,0-6.1-2.5-6.1-6.1c0-3.8,3.1-6.2,6.2-6.2C44.1,0,46.8,2.8,46.8,6.2z M44.6,6.1
			c0-2.2-1.8-4-4-4c-2.2,0-4,1.8-4,3.9c0,2.2,1.8,4.1,4,4C42.9,10.1,44.6,8.3,44.6,6.1z"/>
		<path class="st0" d="M45.4,20.6c0-2,1.6-3.6,3.6-3.6c2,0,3.6,1.6,3.6,3.6c0,2-1.6,3.6-3.6,3.6C47,24.2,45.4,22.6,45.4,20.6z
			 M51.3,20.6c0-1.2-1-2.3-2.3-2.3c-1.2,0-2.3,1-2.3,2.3c0,1.2,1.1,2.3,2.3,2.3C50.2,22.9,51.3,21.8,51.3,20.6z"/>
		<path class="st0" d="M31.7,49.6c-3.1-0.1-5.5-2.6-5.4-5.6c0.1-3,2.6-5.4,5.6-5.3c3,0,5.4,2.6,5.4,5.5
			C37.2,47.2,34.7,49.6,31.7,49.6z M35.9,44.1c0-2.3-1.8-4.2-4.1-4.2c-2.3,0-4.2,1.9-4.2,4.2c0,2.2,1.9,4.1,4.1,4.2
			C34.1,48.3,35.9,46.5,35.9,44.1z"/>
		<path class="st0" d="M6.1,23.3c0-2.7,2.2-4.9,4.9-4.9c2.7,0,4.9,2.2,4.9,4.9c0,2.7-2.2,4.9-4.9,4.9C8.3,28.1,6.1,25.9,6.1,23.3z
			 M11,19.7c-2,0-3.6,1.6-3.6,3.5c0,1.9,1.6,3.6,3.6,3.6c1.9,0,3.6-1.6,3.6-3.6C14.5,21.3,12.9,19.7,11,19.7z"/>
		<path class="st0" d="M40.6,8.8c1.5,0,2.7-1.2,2.7-2.7c0-1.5-1.2-2.7-2.7-2.7c-1.5,0-2.7,1.2-2.7,2.7C38,7.6,39.1,8.8,40.6,8.8z"/>
		<path class="st1" d="M51.3,20.6c0,1.2-1.1,2.3-2.3,2.3c-1.2,0-2.3-1.1-2.3-2.3c0-1.2,1.1-2.3,2.3-2.3
			C50.3,18.3,51.3,19.4,51.3,20.6z"/>
		<path class="st1" d="M35.9,44.1c0,2.3-1.9,4.2-4.2,4.1c-2.3,0-4.2-1.9-4.1-4.2c0-2.3,1.9-4.2,4.2-4.2C34.1,40,36,41.9,35.9,44.1z"
			/>
		<path class="st1" d="M11,19.7c2,0,3.6,1.6,3.6,3.6c0,1.9-1.6,3.6-3.6,3.6c-2,0-3.6-1.6-3.6-3.6C7.4,21.3,9,19.7,11,19.7z"/>
		<path class="st1" d="M40.6,8.8c-1.5,0-2.7-1.2-2.7-2.7c0-1.5,1.2-2.7,2.7-2.7c1.5,0,2.7,1.2,2.7,2.7C43.3,7.6,42.1,8.8,40.6,8.8z"
			/>
	</g>
</g>
</svg>
